<svg xmlns="http://www.w3.org/2000/svg" xmlns:xlink="http://www.w3.org/1999/xlink"><defs><path d="M12 2C6.48 2 2 6.48 2 12s4.48 10 10 10 10-4.48 10-10S17.52 2 12 2zm0 3c1.66 0 3 1.34 3 3s-1.34 3-3 3-3-1.34-3-3 1.34-3 3-3zm0 14.2c-2.5 0-4.71-1.28-6-3.22.03-1.99 4-3.08 6-3.08 1.99 0 5.97 1.09 6 3.08-1.29 1.94-3.5 3.22-6 3.22z" id="action_account_circle"/><g id="action_check_circle"><path d="M0 0h24v24H0z" fill="none"/><path d="M12 2C6.48 2 2 6.48 2 12s4.48 10 10 10 10-4.48 10-10S17.52 2 12 2zm-2 15l-5-5 1.41-1.41L10 14.17l7.59-7.59L19 8l-9 9z"/></g><path d="M4 14h4v-4H4v4zm0 5h4v-4H4v4zM4 9h4V5H4v4zm5 5h12v-4H9v4zm0 5h12v-4H9v4zM9 5v4h12V5H9z" id="action_view_list"/><path d="M18 8h-1V6c0-2.76-2.24-5-5-5S7 3.24 7 6v2H6c-1.1 0-2 .9-2 2v10c0 1.1.9 2 2 2h12c1.1 0 2-.9 2-2V10c0-1.1-.9-2-2-2zm-6 9c-1.1 0-2-.9-2-2s.9-2 2-2 2 .9 2 2-.9 2-2 2zm3.1-9H8.9V6c0-1.71 1.39-3.1 3.1-3.1 1.71 0 3.1 1.39 3.1 3.1v2z" id="action_lock"/><path d="M19 19H5V5h7V3H5c-1.11 0-2 .9-2 2v14c0 1.1.89 2 2 2h14c1.1 0 2-.9 2-2v-7h-2v7zM14 3v2h3.59l-9.83 9.83 1.41 1.41L19 6.41V10h2V3h-7z" id="action_launch"/><path d="M10 20v-6h4v6h5v-8h3L12 3 2 12h3v8z" id="action_home"/><path fill-opacity=".9" d="M11.99 2C6.47 2 2 6.48 2 12s4.47 10 9.99 10C17.52 22 22 17.52 22 12S17.52 2 11.99 2zM12 20c-4.42 0-8-3.58-8-8s3.58-8 8-8 8 3.58 8 8-3.58 8-8 8zm.5-13H11v6l5.25 3.15.75-1.23-4.5-2.67z" id="action_schedule"/><path d="M12 10.9c-.61 0-1.1.49-1.1 1.1s.49 1.1 1.1 1.1c.61 0 1.1-.49 1.1-1.1s-.49-1.1-1.1-1.1zM12 2C6.48 2 2 6.48 2 12s4.48 10 10 10 10-4.48 10-10S17.52 2 12 2zm2.19 12.19L6 18l3.81-8.19L18 6l-3.81 8.19z" id="action_explore"/><path d="M3 13h8V3H3v10zm0 8h8v-6H3v6zm10 0h8V11h-8v10zm0-18v6h8V3h-8z" id="action_dashboard"/><path d="M6 19c0 1.1.9 2 2 2h8c1.1 0 2-.9 2-2V7H6v12zM19 4h-3.5l-1-1h-5l-1 1H5v2h14V4z" id="action_delete"/><path d="M12 21.35l-1.45-1.32C5.4 15.36 2 12.28 2 8.5 2 5.42 4.42 3 7.5 3c1.74 0 3.41.81 4.5 2.09C13.09 3.81 14.76 3 16.5 3 19.58 3 22 5.42 22 8.5c0 3.78-3.4 6.86-8.55 11.54L12 21.35z" id="action_favorite"/><path d="M16.5 3c-1.74 0-3.41.81-4.5 2.09C10.91 3.81 9.24 3 7.5 3 4.42 3 2 5.42 2 8.5c0 3.78 3.4 6.86 8.55 11.54L12 21.35l1.45-1.32C18.6 15.36 22 12.28 22 8.5 22 5.42 19.58 3 16.5 3zm-4.4 15.55l-.1.1-.1-.1C7.14 14.24 4 11.39 4 8.5 4 6.5 5.5 5 7.5 5c1.54 0 3.04.99 3.57 2.36h1.87C13.46 5.99 14.96 5 16.5 5c2 0 3.5 1.5 3.5 3.5 0 2.89-3.14 5.74-7.9 10.05z" id="action_favorite_border"/><path d="M19 13h-6v6h-2v-6H5v-2h6V5h2v6h6v2z" id="content_add"/><path d="M2.01 21L23 12 2.01 3 2 10l15 2-15 2z" id="content_send"/><path d="M10 18h4v-2h-4v2zM3 6v2h18V6H3zm3 7h12v-2H6v2z" id="content_filter_list"/><path d="M12.65 10C11.83 7.67 9.61 6 7 6c-3.31 0-6 2.69-6 6s2.69 6 6 6c2.61 0 4.83-1.67 5.65-4H17v4h4v-4h2v-4H12.65zM7 14c-1.1 0-2-.9-2-2s.9-2 2-2 2 .9 2 2-.9 2-2 2z" id="communication_vpn_key"/><path d="M20 2H4c-1.1 0-1.99.9-1.99 2L2 22l4-4h14c1.1 0 2-.9 2-2V4c0-1.1-.9-2-2-2zm-2 12H6v-2h12v2zm0-3H6V9h12v2zm0-3H6V6h12v2z" id="communication_message"/><path d="M11.8 10.9c-2.27-.59-3-1.2-3-2.15 0-1.09 1.01-1.85 2.7-1.85 1.78 0 2.44.85 2.5 2.1h2.21c-.07-1.72-1.12-3.3-3.21-3.81V3h-3v2.16c-1.94.42-3.5 1.68-3.5 3.61 0 2.31 1.91 3.46 4.7 4.13 2.5.6 3 1.48 3 2.41 0 .69-.49 1.79-2.7 1.79-2.06 0-2.87-.92-2.98-2.1h-2.2c.12 2.19 1.76 3.42 3.68 3.83V21h3v-2.15c1.95-.37 3.5-1.5 3.5-3.55 0-2.84-2.43-3.81-4.7-4.4z" id="editor_attach_money"/><path d="M3 17.25V21h3.75L17.81 9.94l-3.75-3.75L3 17.25zM20.71 7.04c.39-.39.39-1.02 0-1.41l-2.34-2.34c-.39-.39-1.02-.39-1.41 0l-1.83 1.83 3.75 3.75 1.83-1.83z" id="editor_mode_edit"/><path d="M15.41 16.09l-4.58-4.59 4.58-4.59L14 5.5l-6 6 6 6z" id="hardware_keyboard_arrow_left"/><path d="M8.59 16.34l4.58-4.59-4.58-4.59L10 5.75l6 6-6 6z" id="hardware_keyboard_arrow_right"/><path d="M21 3H3c-1.1 0-2 .9-2 2v12c0 1.1.9 2 2 2h5v2h8v-2h5c1.1 0 1.99-.9 1.99-2L23 5c0-1.1-.9-2-2-2zm0 14H3V5h18v12z" id="hardware_tv"/><path d="M21 3H3C2 3 1 4 1 5v14c0 1.1.9 2 2 2h18c1 0 2-1 2-2V5c0-1-1-2-2-2zM5 17l3.5-4.5 2.5 3.01L14.5 11l4.5 6H5z" id="image_photo_size_select_actual"/><path d="M12 4.5C7 4.5 2.73 7.61 1 12c1.73 4.39 6 7.5 11 7.5s9.27-3.11 11-7.5c-1.73-4.39-6-7.5-11-7.5zM12 17c-2.76 0-5-2.24-5-5s2.24-5 5-5 5 2.24 5 5-2.24 5-5 5zm0-8c-1.66 0-3 1.34-3 3s1.34 3 3 3 3-1.34 3-3-1.34-3-3-3z" id="image_remove_red_eye"/><path d="M16.24 7.76C15.07 6.59 13.54 6 12 6v6l-4.24 4.24c2.34 2.34 6.14 2.34 8.49 0 2.34-2.34 2.34-6.14-.01-8.48zM12 2C6.48 2 2 6.48 2 12s4.48 10 10 10 10-4.48 10-10S17.52 2 12 2zm0 18c-4.42 0-8-3.58-8-8s3.58-8 8-8 8 3.58 8 8-3.58 8-8 8z" id="image_timelapse"/><path d="M13 3H6v18h4v-6h3c3.31 0 6-2.69 6-6s-2.69-6-6-6zm.2 8H10V7h3.2c1.1 0 2 .9 2 2s-.9 2-2 2z" id="maps_local_parking"/><path d="M12 8c-2.21 0-4 1.79-4 4s1.79 4 4 4 4-1.79 4-4-1.79-4-4-4zm8.94 3c-.46-4.17-3.77-7.48-7.94-7.94V1h-2v2.06C6.83 3.52 3.52 6.83 3.06 11H1v2h2.06c.46 4.17 3.77 7.48 7.94 7.94V23h2v-2.06c4.17-.46 7.48-3.77 7.94-7.94H23v-2h-2.06zM12 19c-3.87 0-7-3.13-7-7s3.13-7 7-7 7 3.13 7 7-3.13 7-7 7z" id="maps_my_location"/><path d="M12 2L4.5 20.29l.71.71L12 18l6.79 3 .71-.71z" id="maps_navigation"/><path d="M8.1 13.34l2.83-2.83L3.91 3.5c-1.56 1.56-1.56 4.09 0 5.66l4.19 4.18zm6.78-1.81c1.53.71 3.68.21 5.27-1.38 1.91-1.91 2.28-4.65.81-6.12-1.46-1.46-4.2-1.1-6.12.81-1.59 1.59-2.09 3.74-1.38 5.27L3.7 19.87l1.41 1.41L12 14.41l6.88 6.88 1.41-1.41L13.41 13l1.47-1.47z" id="maps_restaurant_menu"/><path d="M19 2H5c-1.11 0-2 .9-2 2v14c0 1.1.89 2 2 2h4l3 3 3-3h4c1.1 0 2-.9 2-2V4c0-1.1-.9-2-2-2zm-7 3.3c1.49 0 2.7 1.21 2.7 2.7 0 1.49-1.21 2.7-2.7 2.7-1.49 0-2.7-1.21-2.7-2.7 0-1.49 1.21-2.7 2.7-2.7zM18 16H6v-.9c0-2 4-3.1 6-3.1s6 1.1 6 3.1v.9z" id="maps_person_pin"/><path d="M7 13c1.66 0 3-1.34 3-3S8.66 7 7 7s-3 1.34-3 3 1.34 3 3 3zm12-6h-8v7H3V5H1v15h2v-3h18v3h2v-9c0-2.21-1.79-4-4-4z" id="maps_hotel"/><path d="M15.5 5.5c1.1 0 2-.9 2-2s-.9-2-2-2-2 .9-2 2 .9 2 2 2zM5 12c-2.8 0-5 2.2-5 5s2.2 5 5 5 5-2.2 5-5-2.2-5-5-5zm0 8.5c-1.9 0-3.5-1.6-3.5-3.5s1.6-3.5 3.5-3.5 3.5 1.6 3.5 3.5-1.6 3.5-3.5 3.5zm5.8-10l2.4-2.4.8.8c1.3 1.3 3 2.1 5.1 2.1V9c-1.5 0-2.7-.6-3.6-1.5l-1.9-1.9c-.5-.4-1-.6-1.6-.6s-1.1.2-1.4.6L7.8 8.4c-.4.4-.6.9-.6 1.4 0 .6.2 1.1.6 1.4L11 14v5h2v-6.2l-2.2-2.3zM19 12c-2.8 0-5 2.2-5 5s2.2 5 5 5 5-2.2 5-5-2.2-5-5-5zm0 8.5c-1.9 0-3.5-1.6-3.5-3.5s1.6-3.5 3.5-3.5 3.5 1.6 3.5 3.5-1.6 3.5-3.5 3.5z" id="maps_directions_bike"/><path d="M20 21c-1.39 0-2.78-.47-4-1.32-2.44 1.71-5.56 1.71-8 0C6.78 20.53 5.39 21 4 21H2v2h2c1.38 0 2.74-.35 4-.99 2.52 1.29 5.48 1.29 8 0 1.26.65 2.62.99 4 .99h2v-2h-2zM3.95 19H4c1.6 0 3.02-.88 4-2 .98 1.12 2.4 2 4 2s3.02-.88 4-2c.98 1.12 2.4 2 4 2h.05l1.89-6.68c.08-.26.06-.54-.06-.78s-.34-.42-.6-.5L20 10.62V6c0-1.1-.9-2-2-2h-3V1H9v3H6c-1.1 0-2 .9-2 2v4.62l-1.29.42c-.26.08-.48.26-.6.5s-.15.52-.06.78L3.95 19zM6 6h12v3.97L12 8 6 9.97V6z" id="maps_directions_boat"/><path d="M4 16c0 .88.39 1.67 1 2.22V20c0 .55.45 1 1 1h1c.55 0 1-.45 1-1v-1h8v1c0 .55.45 1 1 1h1c.55 0 1-.45 1-1v-1.78c.61-.55 1-1.34 1-2.22V6c0-3.5-3.58-4-8-4s-8 .5-8 4v10zm3.5 1c-.83 0-1.5-.67-1.5-1.5S6.67 14 7.5 14s1.5.67 1.5 1.5S8.33 17 7.5 17zm9 0c-.83 0-1.5-.67-1.5-1.5s.67-1.5 1.5-1.5 1.5.67 1.5 1.5-.67 1.5-1.5 1.5zm1.5-6H6V6h12v5z" id="maps_directions_bus"/><path d="M18.92 6.01C18.72 5.42 18.16 5 17.5 5h-11c-.66 0-1.21.42-1.42 1.01L3 12v8c0 .55.45 1 1 1h1c.55 0 1-.45 1-1v-1h12v1c0 .55.45 1 1 1h1c.55 0 1-.45 1-1v-8l-2.08-5.99zM6.5 16c-.83 0-1.5-.67-1.5-1.5S5.67 13 6.5 13s1.5.67 1.5 1.5S7.33 16 6.5 16zm11 0c-.83 0-1.5-.67-1.5-1.5s.67-1.5 1.5-1.5 1.5.67 1.5 1.5-.67 1.5-1.5 1.5zM5 11l1.5-4.5h11L19 11H5z" id="maps_directions_car"/><path d="M4 15.5C4 17.43 5.57 19 7.5 19L6 20.5v.5h12v-.5L16.5 19c1.93 0 3.5-1.57 3.5-3.5V5c0-3.5-3.58-4-8-4s-8 .5-8 4v10.5zm8 1.5c-1.1 0-2-.9-2-2s.9-2 2-2 2 .9 2 2-.9 2-2 2zm6-7H6V5h12v5z" id="maps_directions_railway"/><path d="M13.49 5.48c1.1 0 2-.9 2-2s-.9-2-2-2-2 .9-2 2 .9 2 2 2zm-3.6 13.9l1-4.4 2.1 2v6h2v-7.5l-2.1-2 .6-3c1.3 1.5 3.3 2.5 5.5 2.5v-2c-1.9 0-3.5-1-4.3-2.4l-1-1.6c-.4-.6-1-1-1.7-1-.3 0-.5.1-.8.1l-5.2 2.2v4.7h2v-3.4l1.8-.7-1.6 8.1-4.9-1-.4 2 7 1.4z" id="maps_directions_run"/><path d="M12 2c-4.42 0-8 .5-8 4v9.5C4 17.43 5.57 19 7.5 19L6 20.5v.5h12v-.5L16.5 19c1.93 0 3.5-1.57 3.5-3.5V6c0-3.5-3.58-4-8-4zM7.5 17c-.83 0-1.5-.67-1.5-1.5S6.67 14 7.5 14s1.5.67 1.5 1.5S8.33 17 7.5 17zm3.5-6H6V6h5v5zm5.5 6c-.83 0-1.5-.67-1.5-1.5s.67-1.5 1.5-1.5 1.5.67 1.5 1.5-.67 1.5-1.5 1.5zm1.5-6h-5V6h5v5z" id="maps_directions_subway"/><path d="M12 2c-4.42 0-8 .5-8 4v9.5C4 17.43 5.57 19 7.5 19L6 20.5v.5h12v-.5L16.5 19c1.93 0 3.5-1.57 3.5-3.5V6c0-3.5-3.58-4-8-4zM7.5 17c-.83 0-1.5-.67-1.5-1.5S6.67 14 7.5 14s1.5.67 1.5 1.5S8.33 17 7.5 17zm3.5-6H6V6h5v5zm5.5 6c-.83 0-1.5-.67-1.5-1.5s.67-1.5 1.5-1.5 1.5.67 1.5 1.5-.67 1.5-1.5 1.5zm1.5-6h-5V6h5v5z" id="maps_directions_transit"/><path d="M13.5 5.5c1.1 0 2-.9 2-2s-.9-2-2-2-2 .9-2 2 .9 2 2 2zM9.8 8.9L7 23h2.1l1.8-8 2.1 2v6h2v-7.5l-2.1-2 .6-3C14.8 12 16.8 13 19 13v-2c-1.9 0-3.5-1-4.3-2.4l-1-1.6c-.4-.6-1-1-1.7-1-.3 0-.5.1-.8.1L6 8.3V13h2V9.6l1.8-.7" id="maps_directions_walk"/><path d="M9 16.17L4.83 12l-1.42 1.41L9 19 21 7l-1.41-1.41z" id="navigation_check"/><path d="M3 18h18v-2H3v2zm0-5h18v-2H3v2zm0-7v2h18V6H3z" id="navigation_menu"/><path d="M15 11V5l-3-3-3 3v2H3v14h18V11h-6zm-8 8H5v-2h2v2zm0-4H5v-2h2v2zm0-4H5V9h2v2zm6 8h-2v-2h2v2zm0-4h-2v-2h2v2zm0-4h-2V9h2v2zm0-4h-2V5h2v2zm6 12h-2v-2h2v2zm0-4h-2v-2h2v2z" id="social_location_city"/><path d="M12 2C6.48 2 2 6.48 2 12s4.48 10 10 10 10-4.48 10-10S17.52 2 12 2zm-1 17.93c-3.95-.49-7-3.85-7-7.93 0-.62.08-1.21.21-1.79L9 15v1c0 1.1.9 2 2 2v1.93zm6.9-2.54c-.26-.81-1-1.39-1.9-1.39h-1v-3c0-.55-.45-1-1-1H8v-2h2c.55 0 1-.45 1-1V7h2c1.1 0 2-.9 2-2v-.41c2.93 1.19 5 4.06 5 7.41 0 2.08-.8 3.97-2.1 5.39z" id="social_public"/><path d="M11.99 2C6.47 2 2 6.48 2 12s4.47 10 9.99 10C17.52 22 22 17.52 22 12S17.52 2 11.99 2zM12 20c-4.42 0-8-3.58-8-8s3.58-8 8-8 8 3.58 8 8-3.58 8-8 8zm3.5-9c.83 0 1.5-.67 1.5-1.5S16.33 8 15.5 8 14 8.67 14 9.5s.67 1.5 1.5 1.5zm-7 0c.83 0 1.5-.67 1.5-1.5S9.33 8 8.5 8 7 8.67 7 9.5 7.67 11 8.5 11zm3.5 6.5c2.33 0 4.31-1.46 5.11-3.5H6.89c.8 2.04 2.78 3.5 5.11 3.5z" id="social_mood"/><path d="M16 11c1.66 0 2.99-1.34 2.99-3S17.66 5 16 5c-1.66 0-3 1.34-3 3s1.34 3 3 3zm-8 0c1.66 0 2.99-1.34 2.99-3S9.66 5 8 5C6.34 5 5 6.34 5 8s1.34 3 3 3zm0 2c-2.33 0-7 1.17-7 3.5V19h14v-2.5c0-2.33-4.67-3.5-7-3.5zm8 0c-.29 0-.62.02-.97.05 1.16.84 1.97 1.97 1.97 3.45V19h6v-2.5c0-2.33-4.67-3.5-7-3.5z" id="social_people"/><path d="M12 12c2.21 0 4-1.79 4-4s-1.79-4-4-4-4 1.79-4 4 1.79 4 4 4zm0 2c-2.67 0-8 1.34-8 4v2h16v-2c0-2.66-5.33-4-8-4z" id="social_person"/><path d="M13.5.67s.74 2.65.74 4.8c0 2.06-1.35 3.73-3.41 3.73-2.07 0-3.63-1.67-3.63-3.73l.03-.36C5.21 7.51 4 10.62 4 14c0 4.42 3.58 8 8 8s8-3.58 8-8C20 8.61 17.41 3.8 13.5.67zM11.71 19c-1.78 0-3.22-1.4-3.22-3.14 0-1.62 1.05-2.76 2.81-3.12 1.77-.36 3.6-1.21 4.62-2.58.39 1.29.59 2.65.59 4.04 0 2.65-2.15 4.8-4.8 4.8z" id="social_whatshot"/><g id="smoking"><path d="M2 16h15v3H2zm18.5 0H22v3h-1.5zM18 16h1.5v3H18zm.85-8.27c.62-.61 1-1.45 1-2.38C19.85 3.5 18.35 2 16.5 2v1.5c1.02 0 1.85.83 1.85 1.85S17.52 7.2 16.5 7.2v1.5c2.24 0 4 1.83 4 4.07V15H22v-2.24c0-2.22-1.28-4.14-3.15-5.03zm-2.82 2.47H14.5c-1.02 0-1.85-.98-1.85-2s.83-1.75 1.85-1.75v-1.5c-1.85 0-3.35 1.5-3.35 3.35s1.5 3.35 3.35 3.35h1.53c1.05 0 1.97.74 1.97 2.05V15h1.5v-1.64c0-1.81-1.6-3.16-3.47-3.16z"/><path d="M0 0h24v24H0z" fill="none"/></g><path d="M7 2l4 4H8v4H6V6H3l4-4m10 8l-4-4h3V2h2v4h3l-4 4M7 12h10a2 2 0 0 1 2 2v6a2 2 0 0 1-2 2H7a2 2 0 0 1-2-2v-6a2 2 0 0 1 2-2m0 2v6h10v-6H7z" id="elevator"/><g id="padpiper" fill="#00bcd6"><path d="M1943.5 361.5h-137q2.55 27.6 18.3 42.9c10.5 10.2 24.2 15.3 40.9 15.3 13.3 0 24.4-2.3 33.2-6.9a36.38 36.38 0 0 0 14.7-13.2 8 8 0 0 1 10.6-2.9l9.2 4.8a8.05 8.05 0 0 1 2.8 11.9 72.18 72.18 0 0 1-24.1 21.6q-18.15 10.2-46.5 10.2-41.1 0-64.5-25.1t-23.4-69.4c0-29.5 7.4-52.7 22.3-69.4s36-25.1 63.4-25.1c17 0 31.6 3.8 44 11.3a72.25 72.25 0 0 1 28 30.5c6.3 12.8 9.4 27.2 9.4 43.2a114.79 114.79 0 0 1-1.3 20.3m-118.6-65.7c-9.8 9.4-15.8 22.8-18 39.9H1917c-1.9-16.9-7.5-30.2-16.7-39.8s-21.4-14.3-36.7-14.3c-16 0-28.9 4.8-38.7 14.2m-964.7-73.9q22.2 19.8 22.2 53.2t-22.2 53.2q-22.2 19.8-58.5 19.8h-55.6v85.6a8.07 8.07 0 0 1-8.1 8.1h-12.9a8.07 8.07 0 0 1-8.1-8.1V210.2a8.07 8.07 0 0 1 8.1-8.1h76.6q36.3 0 58.5 19.8m-21.6 87.6c8.8-7.6 13.3-19.1 13.3-34.3s-4.4-26.7-13.3-34.3-22.6-11.4-41.2-11.4h-51.2V321h51.2c18.6-.1 32.3-3.9 41.2-11.5m-306.8 3.8c-10 6.9-167.3 106.5-167.3 106.5a11.88 11.88 0 0 0-5.5 10l.1 74.8c-1 0-40.5 3-73-17.2v-82.1c0-10.4-7.5-23.8-16.9-29.8L243.9 359c-9.3-6.1-16.9-2.5-16.9 7.9v82a211.18 211.18 0 0 1-32-34.8V328a12.29 12.29 0 0 0-12.3-12.3 12.29 12.29 0 0 0-12.3 12.3v90.4h.1a16.41 16.41 0 0 0 2.8 7 272.27 272.27 0 0 0 46.3 49.4c42.1 35 89.2 53.4 136.3 53.4s93.1-17 133.1-49.1c30.1-24.2 52.2-53.2 52.9-54.2l1.7-2.5-1.1-103.7a6.83 6.83 0 0 0-10.7-5.4z"/><path d="M587 238a10.64 10.64 0 0 0-5.9-9.2l-219.5-140a14.54 14.54 0 0 0-14.2-1.7l-.6.3-220.3 140.8-.5.3-.5.4a12.19 12.19 0 0 0 .1 19l.5.4L346.8 389l.6.4.6.3a12.89 12.89 0 0 0 5.5 1.1 14.44 14.44 0 0 0 8.7-2.9l200.2-128.8v86.6a12.29 12.29 0 0 0 12.3 12.3 12.29 12.29 0 0 0 12.3-12.3V238zM353.7 362.6L158.8 238.4l194.3-124.2zm719.9 66.2l-.6 7.1a8.11 8.11 0 0 1-6.1 7.2 65.15 65.15 0 0 1-16.1 1.9c-9.4 0-16.9-2.1-22.3-6.2s-8.9-11-10.4-20.7c-5.6 8.5-13.7 15.1-24.5 19.8a84.24 84.24 0 0 1-34 7.1c-17.9 0-32.7-4.2-44.3-12.5s-17.4-20.4-17.4-36.1c0-13.8 6.1-25.7 18.2-35.8s29.7-17 52.7-20.9l48.3-8v-10.2c0-12.1-3.8-21.8-11.3-29.1s-17.9-10.9-31.2-10.9c-12.1 0-22.6 2.9-31.4 8.7a53.09 53.09 0 0 0-16.5 17.7 8.1 8.1 0 0 1-11.7 2.5l-8.6-6.3a8.09 8.09 0 0 1-2.5-10c5.2-10.7 13.3-19.4 24.5-26.1 13.2-8 28.6-12 46.3-12q32.4 0 52 15.6t19.6 46.1V407c0 4.4 1.1 7.6 3.3 9.8s5.7 3.3 10.5 3.3c1.7 0 3.4-.1 5-.2a8.3 8.3 0 0 1 8.5 8.9m-73.1-20.1c11-7.3 16.5-16.7 16.5-28.3v-25.1l-40.7 7.6c-16.2 2.9-28.3 7.1-36.3 12.5s-12 12.4-12 20.9c0 7.5 2.9 13.3 8.7 17.2s13.9 6 24.3 6c15.3.1 28.4-3.5 39.5-10.8m255.4-224.3v249a8.07 8.07 0 0 1-8.1 8.1h-9.7a8.1 8.1 0 0 1-8.1-7.6l-1.4-24c-5.3 10.7-13.5 19.2-24.5 25.6s-23.6 9.6-37.6 9.6q-38.1 0-60.5-25.2t-22.3-69.2c0-29.3 7.4-52.3 22.3-69.2s35.1-25.2 60.5-25.2c13.3 0 25.3 2.9 35.8 8.7a64.45 64.45 0 0 1 24.5 23.2V184.4a8.07 8.07 0 0 1 8.1-8.1h12.9a8.07 8.07 0 0 1 8.1 8.1m-44.5 217.1q15.45-18.15 15.4-48.7v-4.4c0-20.3-5.1-36.6-15.4-48.7s-24.2-18.2-41.6-18.2q-26.55 0-41.8 18.7c-10.2 12.5-15.3 29.2-15.3 50.3s5.1 37.8 15.3 50.3 24.1 18.7 41.8 18.7c17.5.1 31.3-5.9 41.6-18m240-179.6q22.2 19.8 22.2 53.2t-22.2 53.2q-22.2 19.8-58.5 19.8h-55.6v85.6a8.07 8.07 0 0 1-8.1 8.1h-12.9a8.07 8.07 0 0 1-8.1-8.1V210.2a8.07 8.07 0 0 1 8.1-8.1h76.6q36.3 0 58.5 19.8m-21.6 87.6c8.8-7.6 13.3-19.1 13.3-34.3s-4.4-26.7-13.3-34.3-22.6-11.4-41.2-11.4h-51.2V321h51.2c18.6-.1 32.3-3.9 41.2-11.5m75.5-90.5c-4-4-6-9.3-6-15.8s2-11.8 6-15.8 9.3-6 15.8-6 11.8 2 15.8 6 6 9.3 6 15.8-2 11.8-6 15.8-9.3 6-15.8 6-11.8-2-15.8-6m22.3 222.4h-12.9a8.07 8.07 0 0 1-8.1-8.1V267.9a8.07 8.07 0 0 1 8.1-8.1h12.9a8.07 8.07 0 0 1 8.1 8.1v165.4a8.13 8.13 0 0 1-8.1 8.1m199.1-159.9q22.35 25.2 22.3 69.2t-22.3 69.2q-22.35 25.2-60.5 25.2c-13.3 0-25.3-2.9-35.8-8.7a64.45 64.45 0 0 1-24.5-23.2v96.5a8.07 8.07 0 0 1-8.1 8.1h-12.9a8.07 8.07 0 0 1-8.1-8.1V267.9a8.07 8.07 0 0 1 8.1-8.1h9.7a8.1 8.1 0 0 1 8.1 7.6l1.4 24c5.3-10.7 13.5-19.2 24.5-25.6s23.6-9.6 37.6-9.6c25.5 0 45.6 8.4 60.5 25.3m-22 119.4c10.2-12.5 15.3-29.2 15.3-50.3s-5.1-37.8-15.3-50.3-24.1-18.7-41.8-18.7c-17.4 0-31.3 6.1-41.6 18.2s-15.4 28.3-15.4 48.7v4.4c0 20.3 5.1 36.6 15.4 48.7s24.2 18.2 41.6 18.2c17.7-.2 31.7-6.4 41.8-18.9m378.1-134.1l-2.5 12.1a8.08 8.08 0 0 1-9.9 6.2 60.47 60.47 0 0 0-14.9-1.7 43 43 0 0 0-22.7 6.7c-7.4 4.5-13.4 11.3-18.2 20.3s-7.1 20-7.1 32.9v90a8.07 8.07 0 0 1-8.1 8.1h-12.9a8.07 8.07 0 0 1-8.1-8.1V267.9a8.07 8.07 0 0 1 8.1-8.1h8.5a8.08 8.08 0 0 1 8 7l3.1 22.8c10.2-22.3 29.5-33.4 58.1-33.4a62.62 62.62 0 0 1 12.2 1 8.1 8.1 0 0 1 6.4 9.6"/></g><g id="logo"><style>.st0,.st1{fill:#00bcd6} .st0{stroke:#979797;stroke-miterlimit:10} .st1{fill-rule:evenodd;clip-rule:evenodd}</style><path class="st1" d="M406.4 227.1c-9.8 6.7-163.2 103.8-163.2 103.8-3.3 2.1-5.4 5.8-5.4 9.7l.1 73c-1 0-39.5 2.9-71.2-16.8v-80.1c0-10.2-7.4-23.2-16.4-29.1l-24.7-16c-9.1-5.9-16.4-2.4-16.4 7.7v80c-16-14.1-25.6-26.3-31.2-34v-84c0-6.6-5.4-12-12-12s-12 5.4-12 12v88.3c.4 2.5 1.3 4.8 2.8 6.8 5.8 8.1 21 28.1 45.2 48.2 41 34.1 87 52.1 132.9 52.1 45.9 0 90.8-16.6 129.8-47.9 29.4-23.6 50.9-51.9 51.6-52.8l1.6-2.4-1.1-101.2c0-5.2-6-8.3-10.4-5.3z"/><path class="st1" d="M460.2 153.7c-.1-3.8-2.3-7.1-5.7-9L240.4 8.2c-4-3-9.5-3.6-13.8-1.6l-.6.3L11.1 144.1l-.5.3-.5.4c-2.8 2.3-4.4 5.7-4.4 9.3 0 3.6 1.6 7 4.4 9.3l.5.4L226 301l.6.4.6.3c1.7.8 3.5 1.1 5.3 1.1 3 0 6-1 8.5-2.8l195.2-125.7v84.4c0 6.6 5.4 12 12 12s12-5.4 12-12v-105zM232.7 275.2L42.6 154.1 232.1 33l.6 242.2z"/></g><path d="M17 2v4h-2c-.69 0-1 .81-1 1.5V10h3v4h-3v8h-4v-8H7v-4h3V6a4 4 0 0 1 4-4h3z" id="facebook"/><path d="M12 2C6.5 2 2 6.14 2 11.25c0 2.88 1.42 5.45 3.65 7.15l.06 3.6 3.45-1.88-.03-.01c.91.25 1.87.39 2.87.39 5.5 0 10-4.14 10-9.25S17.5 2 12 2m1.03 12.41l-2.49-2.63-5.04 2.63 5.38-5.63 2.58 2.47 4.85-2.47-5.28 5.63z" id="messenger"/><path d="M22.46 6c-.77.35-1.6.58-2.46.69.88-.53 1.56-1.37 1.88-2.38-.83.5-1.75.85-2.72 1.05C18.37 4.5 17.26 4 16 4c-2.35 0-4.27 1.92-4.27 4.29 0 .34.04.67.11.98C8.28 9.09 5.11 7.38 3 4.79c-.37.63-.58 1.37-.58 2.15 0 1.49.75 2.81 1.91 3.56-.71 0-1.37-.2-1.95-.5v.03c0 2.08 1.48 3.82 3.44 4.21a4.22 4.22 0 0 1-1.93.07 4.28 4.28 0 0 0 4 2.98 8.52 8.52 0 0 1-5.33 1.84c-.34 0-.68-.02-1.02-.06C3.44 20.29 5.7 21 8.12 21 16 21 20.33 14.46 20.33 8.79c0-.19 0-.37-.01-.56.84-.6 1.56-1.36 2.14-2.23z" id="twitter"/><path d="M21 21h-4v-6.75c0-1.06-1.19-1.94-2.25-1.94S13 13.19 13 14.25V21H9V9h4v2c.66-1.07 2.36-1.76 3.5-1.76 2.5 0 4.5 2.04 4.5 4.51V21M7 21H3V9h4v12M5 3a2 2 0 0 1 2 2 2 2 0 0 1-2 2 2 2 0 0 1-2-2 2 2 0 0 1 2-2z" id="linkedin"/><path d="M7.8 2h8.4C19.4 2 22 4.6 22 7.8v8.4a5.8 5.8 0 0 1-5.8 5.8H7.8C4.6 22 2 19.4 2 16.2V7.8A5.8 5.8 0 0 1 7.8 2m-.2 2A3.6 3.6 0 0 0 4 7.6v8.8C4 18.39 5.61 20 7.6 20h8.8a3.6 3.6 0 0 0 3.6-3.6V7.6C20 5.61 18.39 4 16.4 4H7.6m9.65 1.5a1.25 1.25 0 0 1 1.25 1.25A1.25 1.25 0 0 1 17.25 8 1.25 1.25 0 0 1 16 6.75a1.25 1.25 0 0 1 1.25-1.25M12 7a5 5 0 0 1 5 5 5 5 0 0 1-5 5 5 5 0 0 1-5-5 5 5 0 0 1 5-5m0 2a3 3 0 0 0-3 3 3 3 0 0 0 3 3 3 3 0 0 0 3-3 3 3 0 0 0-3-3z" id="instagram"/><path d="M12 2A10 10 0 0 0 2 12c0 4.42 2.87 8.17 6.84 9.5.5.08.66-.23.66-.5v-1.69c-2.77.6-3.36-1.34-3.36-1.34-.46-1.16-1.11-1.47-1.11-1.47-.91-.62.07-.6.07-.6 1 .07 1.53 1.03 1.53 1.03.87 1.52 2.34 1.07 2.91.83.09-.65.35-1.09.63-1.34-2.22-.25-4.55-1.11-4.55-4.92 0-1.11.38-2 1.03-2.71-.1-.25-.45-1.29.1-2.64 0 0 .84-.27 2.75 1.02.79-.22 1.65-.33 2.5-.33.85 0 1.71.11 2.5.33 1.91-1.29 2.75-1.02 2.75-1.02.55 1.35.2 2.39.1 2.64.65.71 1.03 1.6 1.03 2.71 0 3.82-2.34 4.66-4.57 4.91.36.31.69.92.69 1.85V21c0 .27.16.59.67.5C19.14 20.16 22 16.42 22 12A10 10 0 0 0 12 2z" id="github"/><path d="M16.42 18.42C16 16.5 15.5 14.73 15 13.17c.5-.07 1-.11 1.58-.11h.02c.93 0 1.95.12 3.06.37-.38 2.07-1.58 3.84-3.24 4.99M12 19.8c-1.74 0-3.34-.57-4.64-1.54.28-.45.87-1.32 1.82-2.22.96-.93 2.32-1.89 4.05-2.46.59 1.67 1.13 3.57 1.54 5.71-.86.33-1.77.51-2.77.51M4.2 12v-.11c.22.01.51.01.85.01h.01c1.56-.01 4.3-.14 7.08-1.01.15.33.3.67.45 1.03-1.86.62-3.32 1.61-4.4 2.58-1.03.96-1.74 1.89-2.15 2.5-1.14-1.34-1.84-3.09-1.84-5m4.35-7c.55.65 1.63 2.06 2.79 4.25-2.34.71-4.73.87-6.16.87h-.13c-.24 0-.45 0-.62-.01C5 7.87 6.5 6 8.55 5M12 4.2c1.84 0 3.53.64 4.86 1.71C15.84 7.14 14.5 8 13.03 8.65 12 6.67 11 5.25 10.34 4.38c.54-.11 1.09-.18 1.66-.18m6.13 2.98c.97 1.24 1.58 2.78 1.66 4.45-1.13-.24-2.19-.35-3.19-.35h-.01c-.8 0-1.55.07-2.26.19-.17-.42-.33-.82-.52-1.21 1.58-.69 3.09-1.68 4.32-3.08M12 2A10 10 0 0 0 2 12a10 10 0 0 0 10 10 10 10 0 0 0 10-10A10 10 0 0 0 12 2z" id="dribbble"/><path d="M12 17.27L18.18 21l-1.64-7.03L22 9.24l-7.19-.62L12 2 9.19 8.62 2 9.24l5.45 4.73L5.82 21 12 17.27z" id="star"/><path d="M12 15.89v-9.3l1.71 4.04 4.38.37-3.32 2.88.99 4.28M22 9.74l-7.19-.61L12 2.5 9.19 9.13 2 9.74l5.45 4.73-1.63 7.03L12 17.77l6.18 3.73-1.64-7.03L22 9.74z" id="star_half"/><path d="M12 15.39l-3.76 2.27.99-4.28-3.32-2.88 4.38-.37L12 6.09l1.71 4.04 4.38.37-3.32 2.88.99 4.28M22 9.24l-7.19-.61L12 2 9.19 8.63 2 9.24l5.45 4.73L5.82 21 12 17.27 18.18 21l-1.64-7.03L22 9.24z" id="star_border"/><g id="restaurant"><path d="M11 9H9V2H7v7H5V2H3v7c0 2.12 1.66 3.84 3.75 3.97V22h2.5v-9.03C11.34 12.84 13 11.12 13 9V2h-2v7zm5-3v8h2.5v8H21V2c-2.76 0-5 2.24-5 4z"/><path d="M0 0h24v24H0z" fill="none"/></g><g id="ac"><path d="M22 11h-4.17l3.24-3.24-1.41-1.42L15 11h-2V9l4.66-4.66-1.42-1.41L13 6.17V2h-2v4.17L7.76 2.93 6.34 4.34 11 9v2H9L4.34 6.34 2.93 7.76 6.17 11H2v2h4.17l-3.24 3.24 1.41 1.42L9 13h2v2l-4.66 4.66 1.42 1.41L11 17.83V22h2v-4.17l3.24 3.24 1.42-1.41L13 15v-2h2l4.66 4.66 1.41-1.42L17.83 13H22z"/><path d="M0 0h24v24H0z" fill="none"/></g><g id="wifi"><path d="M0 0h24v24H0z" fill="none"/><path d="M1 9l2 2c4.97-4.97 13.03-4.97 18 0l2-2C16.93 2.93 7.08 2.93 1 9zm8 8l3 3 3-3a4.237 4.237 0 0 0-6 0zm-4-4l2 2a7.074 7.074 0 0 1 10 0l2-2C15.14 9.14 8.87 9.14 5 13z"/></g><g id="pool"><path d="M22 21c-1.11 0-1.73-.37-2.18-.64-.37-.22-.6-.36-1.15-.36-.56 0-.78.13-1.15.36-.46.27-1.07.64-2.18.64s-1.73-.37-2.18-.64c-.37-.22-.6-.36-1.15-.36-.56 0-.78.13-1.15.36-.46.27-1.08.64-2.19.64-1.11 0-1.73-.37-2.18-.64-.37-.23-.6-.36-1.15-.36s-.78.13-1.15.36c-.46.27-1.08.64-2.19.64v-2c.56 0 .78-.13 1.15-.36.46-.27 1.08-.64 2.19-.64s1.73.37 2.18.64c.37.23.59.36 1.15.36.56 0 .78-.13 1.15-.36.46-.27 1.08-.64 2.19-.64 1.11 0 1.73.37 2.18.64.37.22.6.36 1.15.36s.78-.13 1.15-.36c.45-.27 1.07-.64 2.18-.64s1.73.37 2.18.64c.37.23.59.36 1.15.36v2zm0-4.5c-1.11 0-1.73-.37-2.18-.64-.37-.22-.6-.36-1.15-.36-.56 0-.78.13-1.15.36-.45.27-1.07.64-2.18.64s-1.73-.37-2.18-.64c-.37-.22-.6-.36-1.15-.36-.56 0-.78.13-1.15.36-.45.27-1.07.64-2.18.64s-1.73-.37-2.18-.64c-.37-.22-.6-.36-1.15-.36s-.78.13-1.15.36c-.47.27-1.09.64-2.2.64v-2c.56 0 .78-.13 1.15-.36.45-.27 1.07-.64 2.18-.64s1.73.37 2.18.64c.37.22.6.36 1.15.36.56 0 .78-.13 1.15-.36.45-.27 1.07-.64 2.18-.64s1.73.37 2.18.64c.37.22.6.36 1.15.36s.78-.13 1.15-.36c.45-.27 1.07-.64 2.18-.64s1.73.37 2.18.64c.37.22.6.36 1.15.36v2zM8.67 12c.56 0 .78-.13 1.15-.36.46-.27 1.08-.64 2.19-.64 1.11 0 1.73.37 2.18.64.37.22.6.36 1.15.36s.78-.13 1.15-.36c.12-.07.26-.15.41-.23L10.48 5C8.93 3.45 7.5 2.99 5 3v2.5c1.82-.01 2.89.39 4 1.5l1 1-3.25 3.25c.31.12.56.27.77.39.37.23.59.36 1.15.36z"/><circle cx="16.5" cy="5.5" r="2.5"/><path d="M0 0h24v24H0z" fill="none"/></g><path d="M7 2h10a2 2 0 0 1 2 2v5H5V4a2 2 0 0 1 2-2m12 17a2 2 0 0 1-2 2v1h-2v-1H9v1H7v-1a2 2 0 0 1-2-2v-9h14v9M8 5v2h2V5H8m0 7v3h2v-3H8z" id="kitchen"/><g id="gym"><path d="M0 0h24v24H0z" fill="none"/><path d="M20.57 14.86L22 13.43 20.57 12 17 15.57 8.43 7 12 3.43 10.57 2 9.14 3.43 7.71 2 5.57 4.14 4.14 2.71 2.71 4.14l1.43 1.43L2 7.71l1.43 1.43L2 10.57 3.43 12 7 8.43 15.57 17 12 20.57 13.43 22l1.43-1.43L16.29 22l2.14-2.14 1.43 1.43 1.43-1.43-1.43-1.43L22 16.29z"/></g><g id="pets"><circle cx="4.5" cy="9.5" r="2.5"/><circle cx="9" cy="5.5" r="2.5"/><circle cx="15" cy="5.5" r="2.5"/><circle cx="19.5" cy="9.5" r="2.5"/><path d="M17.34 14.86c-.87-1.02-1.6-1.89-2.48-2.91-.46-.54-1.05-1.08-1.75-1.32-.11-.04-.22-.07-.33-.09-.25-.04-.52-.04-.78-.04s-.53 0-.79.05c-.11.02-.22.05-.33.09-.7.24-1.28.78-1.75 1.32-.87 1.02-1.6 1.89-2.48 2.91-1.31 1.31-2.92 2.76-2.62 4.79.29 1.02 1.02 2.03 2.33 2.32.73.15 3.06-.44 5.54-.44h.18c2.48 0 4.81.58 5.54.44 1.31-.29 2.04-1.31 2.33-2.32.31-2.04-1.3-3.49-2.61-4.8z"/><path d="M0 0h24v24H0z" fill="none"/></g><path d="M12 2a7 7 0 0 0-7 7c0 2.38 1.19 4.47 3 5.74V17a1 1 0 0 0 1 1h6a1 1 0 0 0 1-1v-2.26c1.81-1.27 3-3.36 3-5.74a7 7 0 0 0-7-7M9 21a1 1 0 0 0 1 1h4a1 1 0 0 0 1-1v-1H9v1z" id="lightbulb"/><g id="cable"><path d="M0 0h24v24H0z" fill="none"/><path d="M18 7V4c0-1.1-.9-2-2-2H8c-1.1 0-2 .9-2 2v3H5v6l3 6v3h8v-3l3-6V7h-1zM8 4h8v3h-2V5h-1v2h-2V5h-1v2H8V4z"/></g><g id="couch"><defs><path d="M0 0h24v24H0z" id="a"/></defs><clipPath id="b"><use overflow="visible" xlink:href="#a"/></clipPath><path clip-path="url(#b)" d="M21 10c-1.1 0-2 .9-2 2v3H5v-3c0-1.1-.9-2-2-2s-2 .9-2 2v5c0 1.1.9 2 2 2h18c1.1 0 2-.9 2-2v-5c0-1.1-.9-2-2-2zm-3-5H6c-1.1 0-2 .9-2 2v2.15c1.16.41 2 1.51 2 2.82V14h12v-2.03c0-1.3.84-2.4 2-2.82V7c0-1.1-.9-2-2-2z"/></g><path d="M12 20a6 6 0 0 1-6-6c0-4 6-10.75 6-10.75S18 10 18 14a6 6 0 0 1-6 6z" id="water"/><path d="M14.83 11.17a4.008 4.008 0 0 1 0 5.66 4.008 4.008 0 0 1-5.66 0l5.66-5.66M6 2h12a2 2 0 0 1 2 2v16a2 2 0 0 1-2 2H6a2 2 0 0 1-2-2V4a2 2 0 0 1 2-2m1 2a1 1 0 0 0-1 1 1 1 0 0 0 1 1 1 1 0 0 0 1-1 1 1 0 0 0-1-1m3 0a1 1 0 0 0-1 1 1 1 0 0 0 1 1 1 1 0 0 0 1-1 1 1 0 0 0-1-1m2 4a6 6 0 0 0-6 6 6 6 0 0 0 6 6 6 6 0 0 0 6-6 6 6 0 0 0-6-6z" id="washing_machine"/><path d="M19.36 2.72l1.42 1.42-5.72 5.71c1.07 1.54 1.22 3.39.32 4.59L9.06 8.12c1.2-.9 3.05-.75 4.59.32l5.71-5.72M5.93 17.57c-2.01-2.01-3.24-4.41-3.58-6.65l4.88-2.09 7.44 7.44-2.09 4.88c-2.24-.34-4.64-1.57-6.65-3.58z" id="broom"/><path d="M5 4v3h5.5v12h3V7H19V4H5z" id="title"/><path d="M5 20h14v-2H5m14-9h-4V3H9v6H5l7 7 7-7z" id="download_file"/><path d="M15 14c-2.67 0-8 1.33-8 4v2h16v-2c0-2.67-5.33-4-8-4m-9-4V7H4v3H1v2h3v3h2v-3h3v-2m6 2a4 4 0 0 0 4-4 4 4 0 0 0-4-4 4 4 0 0 0-4 4 4 4 0 0 0 4 4z" id="person_add"/><g id="visa" fill="#2196F3"><path d="M23.17 4.395H.61c-.338 0-.612.274-.612.613v14.187c0 .338.274.612.612.612H23.17c.337 0 .61-.274.61-.612V5.008c0-.34-.273-.613-.61-.613zM1.84 9.053h2.54c.342.013.617.122.713.488l.552 2.655c-.543-1.388-1.85-2.544-3.825-3.022l.02-.12zm3.072 6.054L3.446 10.1c1.054.673 1.952 1.743 2.268 2.488l.17.62L7.49 9.11h1.735l-2.578 5.996H4.912zm5.586.005H8.86l1.025-6.007h1.638l-1.025 6.007zm2.85.09c-.735-.007-1.442-.153-1.825-.32l.23-1.345.21.095c.54.225.887.316 1.543.316.47 0 .974-.184.98-.587.002-.262-.212-.45-.85-.744-.62-.288-1.444-.77-1.434-1.632.01-1.168 1.15-1.982 2.767-1.982.633 0 1.142.13 1.466.252l-.22 1.302-.15-.07c-.387-.16-.804-.24-1.224-.23-.64 0-.938.267-.938.517-.004.28.347.467.92.745.944.43 1.38.95 1.374 1.632-.012 1.247-1.13 2.052-2.85 2.052zm7.094-.087s-.15-.69-.2-.9l-2.096-.003c-.064.162-.344.903-.344.903h-1.72l2.43-5.506c.174-.392.467-.5.86-.5h1.264l1.325 6.004h-1.518z" id="Shape"/><path fill-opacity="0" fill="#FFF" d="M0 0h24v24H0z"/><path d="M19.486 10.73c-.083.227-.227.59-.217.574 0 0-.52 1.333-.654 1.68h1.36l-.38-1.736-.11-.517z" id="Shape"/></g><g id="mastercard"><path d="M12 15.66c-.703.54-1.586.862-2.545.862-2.273 0-4.122-1.804-4.122-4.022s1.85-4.022 4.122-4.022c.96 0 1.842.323 2.544.86V5.017H0v14.968h12V15.66z" id="Shape" fill="#2488FF"/><path d="M12 5.016v4.322c.72-.553 1.616-.86 2.545-.86 2.273 0 4.122 1.804 4.122 4.022s-1.85 4.022-4.122 4.022c-.93 0-1.824-.307-2.545-.86v4.322h12V5.016H12z" id="Shape" fill="#005ECE"/><path d="M13.576 12.5c0 1.28-.618 2.424-1.577 3.16.72.555 1.616.862 2.545.862 2.273 0 4.122-1.804 4.122-4.022s-1.85-4.022-4.122-4.022c-.93 0-1.824.307-2.545.86.958.738 1.576 1.88 1.576 3.162z" id="Shape" fill="#FFCD00"/><path d="M13.576 12.5c0-1.28-.618-2.424-1.577-3.16-.703-.54-1.586-.862-2.545-.862-2.273 0-4.122 1.804-4.122 4.022s1.85 4.022 4.122 4.022c.96 0 1.842-.323 2.544-.86.958-.738 1.576-1.88 1.576-3.162z" id="Shape" fill="#FF5023"/><path fill-opacity="0" fill="#FFF" d="M0 0h24v24H0z"/></g><g id="placeholder"><path d="M2.317 11.005h17.118v1.24c.342-.11.703-.18 1.08-.194.05 0 .098-.004.15-.004.378 0 .744.06 1.09.156V4.856c0-1.002-.815-1.815-1.822-1.815H1.823C.816 3.04 0 3.855 0 4.857v12.727c0 1.002.816 1.814 1.823 1.814h14.19v-1.882c0-.146.02-.287.05-.428H2.316v-6.082zm0-5.658h17.118v1.907H2.317V5.347z" id="Shape" fill="#BDBDBD"/><path d="M23.286 16.834h-.02v-.9c0-1.43-1.167-2.59-2.6-2.59h-.102c-1.408.055-2.503 1.252-2.503 2.653v.837h-.058c-.38 0-.69.306-.69.686v3.167c0 .38.31.686.69.686h5.284c.382 0 .69-.307.69-.686V17.52c-.005-.38-.313-.686-.69-.686zm-2.136 3.06c.015.082-.044.155-.127.155h-.772c-.082 0-.146-.074-.126-.156l.146-.725c-.146-.123-.23-.317-.195-.527.04-.248.244-.442.494-.472.023-.003.043-.003.067-.003.318 0 .572.253.572.57 0 .174-.084.334-.21.437l.15.72zm.978-3.06H19.2v-.857c0-.76.562-1.42 1.325-1.493.05-.005.093-.005.14-.005.808 0 1.468.65 1.468 1.454v.9h-.005z" id="Shape" fill="#BDBDBD"/><path fill-opacity="0" fill="#FFF" d="M0 0h24v24H0z"/></g><path d="M29.527 40.13L3 25.652 50 0l47 25.652v34.203h-8.545V30.312l-18.702 10.21A24.637 24.637 0 0 1 74.25 54.75c0 13.67-11.08 24.75-24.75 24.75S24.75 68.42 24.75 54.75a24.64 24.64 0 0 1 4.777-14.62zM49.5 91.875c27.35 0 49.5 11.076 49.5 24.75V129H0v-12.375c0-13.674 22.15-24.75 49.5-24.75z" fill="#757575" fill-rule="evenodd" id="student"/><path d="M49.74 0C36.003 0 24.87 11.103 24.87 24.8c0 13.697 11.134 24.8 24.87 24.8 13.734 0 24.87-11.103 24.87-24.8C74.61 11.103 63.473 0 49.74 0zm0 62C33.138 62 0 70.246 0 86.8v12.4h68.89c-.312-2.046-.5-4.092-.5-6.2 0-9.3 3.11-18.6 8.768-26.04C67.645 63.736 57.076 62 49.738 62zM105 119V99.235h13V119h16.25V92.647H144L111.5 63 79 92.647h9.75V119H105z" fill="#757575" fill-rule="evenodd" id="landlord"/><path d="M10 2a2 2 0 0 1 2 2v4.5s2-.25 2 .75c0 0 2-.25 2 .75 0 0 2-.25 2 .75 0 0 2-.25 2 .75V15c0 1-3 6-3 7H9s-2-7-5-9c0 0-1-6 4-1V4a2 2 0 0 1 2-2z" id="cursor-pointer"/><g stroke="#00BCD4" stroke-width="1.5" id="lock" fill="none" fill-rule="evenodd" stroke-linecap="round" stroke-linejoin="round"><path d="M16.345 7.934V6.172c0-2.474-1.977-4.478-4.417-4.478-2.44 0-4.417 2.004-4.417 4.478v1.762M18.114 22.21H5.742c-1.147 0-2.077-.943-2.077-2.105V10.04c0-1.164.93-2.105 2.077-2.105h12.372c1.147 0 2.077.94 2.077 2.105v10.065c0 1.162-.93 2.105-2.076 2.105zM12 15v3.2"/><path d="M13.445 13.18c0 .847-.68 1.535-1.516 1.535-.838 0-1.518-.688-1.518-1.536 0-.85.68-1.538 1.517-1.538.836 0 1.515.688 1.515 1.537z"/></g><g stroke="#00BCD4" stroke-width="1.5" id="back_arrow" fill="none" fill-rule="evenodd" stroke-linecap="round" stroke-linejoin="round"><path d="M22.272 12.966H4M9.95 19.59L3 12.78l6.95-6.812"/></g><g stroke="#00BCD4" stroke-width="1.5" id="forward_arrow" fill="none" fill-rule="evenodd" stroke-linecap="round" stroke-linejoin="round"><path d="M1.728 12H20M14.05 18.625L21 11.813 14.05 5"/></g><g stroke="#FFF" stroke-width="1.5" id="forward_arrow_white" fill="none" fill-rule="evenodd" stroke-linecap="round" stroke-linejoin="round"><g id="Group-2"><path d="M1.728 12H20M14.05 18.625L21 11.813 14.05 5"/></g></g><path d="M7 22.366l10.184-10.182L7 2" stroke-width="2" stroke="#FFF" id="arrow_right" fill="none" fill-rule="evenodd" stroke-linecap="round" stroke-linejoin="round"/><path d="M15.182 22.366L5 12.184 15.184 2" stroke-width="2" stroke="#FFF" id="arrow_left" fill="none" fill-rule="evenodd" stroke-linecap="round" stroke-linejoin="round"/><g stroke="#979797" id="close_gray" fill="none" fill-rule="evenodd" stroke-linecap="round" stroke-linejoin="round"><path d="M19.68 4.32L4.2 19.8M19.68 19.68L4.2 4.2"/></g><g stroke="#FFF" id="close_white" fill="none" fill-rule="evenodd" stroke-linecap="round" stroke-linejoin="round"><path d="M19.68 4.32L4.2 19.8M19.68 19.68L4.2 4.2"/></g><g stroke="#231F1F" id="calendar" fill="none" fill-rule="evenodd" stroke-linecap="round" stroke-linejoin="round"><path d="M18.972 21.906H4.936C3.866 21.906 3 21.03 3 19.95V5.756C3 4.677 3.867 3.8 4.936 3.8h14.036c1.068 0 1.935.876 1.935 1.957V19.95c0 1.08-.867 1.956-1.935 1.956zM7.154 1v4.416M16.846 1v4.416M3 9.4h17.907"/></g><g stroke-width=".914" stroke="#00BCD4" id="attach" fill="none" fill-rule="evenodd" stroke-linecap="round" stroke-linejoin="round"><path d="M15.65 10.46h5.936v11.962H3.016v-11.96H8.4M11.966 15.936V2.383M7.7 6.307l4.265-4.285 4.266 4.285"/></g><g id="directions" fill="none" fill-rule="evenodd"><circle id="Oval-2" fill="#00BCD4" cx="12" cy="12" r="12"/><g stroke-linecap="round" stroke-width="1.6" stroke="#FFF" stroke-linejoin="round"><path d="M18.76 13.008H6.48V.73"/><path d="M14.132 8.022l4.986 4.986-4.986 4.986"/></g></g><g stroke="#888" id="document" fill="none" fill-rule="evenodd" stroke-linecap="round" stroke-linejoin="round"><path d="M14.266 15.55h3.87V4.065H6.26v15.3h8.004zM18.135 15.55l-3.87 3.815"/></g><path d="M23 7L12 17.998 1 7" stroke-width="1.5" stroke="#231F1F" id="dropdown" fill="none" fill-rule="evenodd" stroke-linecap="round" stroke-linejoin="round"/><path d="M23 7L12 17.998 1 7" stroke-width="1.5" stroke="#00BCD4" id="dropdown_blue" fill="none" fill-rule="evenodd" stroke-linecap="round" stroke-linejoin="round"/><g stroke="#231F1F" stroke-width=".914" id="notifications" fill="none" fill-rule="evenodd" stroke-linecap="round" stroke-linejoin="round"><path d="M19.424 18.013c-1.158-.512-1.626-1.917-1.626-3.2v-5.76c0-3.104-2.268-5.876-5.358-6.17-3.544-.338-6.527 2.44-6.527 5.914v6.015c0 1.284-.62 2.69-1.7 3.2 0 0-1.603.43-1.603 1.66 0 .885.716 1.545 1.602 1.545h15.29c.883 0 1.6-.66 1.6-1.545 0-1.25-1.678-1.66-1.678-1.66z"/><path d="M13.54 2.77V2.4c0-.99-.8-1.79-1.79-1.79s-1.79.8-1.79 1.79v.37M9.96 21.217v.37c0 .99.8 1.792 1.79 1.792.988 0 1.79-.803 1.79-1.792v-.37"/></g><g stroke="#231F1F" stroke-width=".914" id="messages" fill="none" fill-rule="evenodd" stroke-linecap="round" stroke-linejoin="round"><path d="M22.765 3.761l-21.013.002v14.623h4.83v4.076l4.48-4.075h11.703zM5.14 8.815H19M5 12h11.214"/></g><g id="success" fill="none" fill-rule="evenodd"><path stroke="#FFF" stroke-width="1.2" stroke-linecap="round" d="M14.987 10.014l-4.14 4.064-1.743-1.714"/><path d="M23.997 11.73c.148 6.628-5.103 12.12-11.73 12.267C5.642 24.147.15 18.893.003 12.27-.147 5.64 5.106.15 11.73.002 18.36-.145 23.85 5.106 23.998 11.73" fill="currentColor"/><path stroke="#FFF" stroke-width=".8" stroke-linecap="round" d="M18.493 7.593L9.42 16.5l-3.823-3.756"/></g><g stroke="#4ACDDE" stroke-width="1.2" id="copy" fill="none" fill-rule="evenodd" stroke-linecap="round" stroke-linejoin="round"><path d="M10.113 1.778H3.315c-1.07 0-1.94.855-1.94 1.912v11.883c0 1.056.87 1.912 1.94 1.912h12.89c1.072 0 1.94-.856 1.94-1.912V10.1"/><path d="M12.65 10.84l-3.113 3.063c-1.062 1.044-2.783 1.044-3.845 0-1.062-1.045-1.062-2.74 0-3.784l3.116-3.067M10.666 5.216l3.113-3.063c1.06-1.045 2.782-1.045 3.844 0 1.062 1.045 1.063 2.74 0 3.783L14.51 9.002M13.294 6.415L10.012 9.65"/></g><path d="M15.528 2.28c-1.96 0-3.64 1.694-4.355 3.392-.718-1.698-2.397-3.393-4.358-3.393-2.61 0-4.726 2.115-4.726 4.725 0 4.633 9.083 11.818 9.083 11.818s9.08-6.702 9.08-11.818c0-2.61-2.115-4.726-4.725-4.726z" id="favorite" fill="none" fill-rule="evenodd" stroke-linecap="round" stroke-linejoin="round"/><path d="M13.91 12.83c-.37-.37-.97-.37-1.342 0l1.1-1.1c.37-.37.37-.973 0-1.344-.372-.37-.973-.37-1.344-.002l.936-.936c.37-.37.37-.973 0-1.345-.372-.37-.974-.37-1.346 0l-.934.934c.368-.37.368-.97-.003-1.34-.37-.372-.973-.372-1.344 0l-3.82 3.747V9.772c0-.554-.45-1.004-1.005-1.004-.51 0-.94.383-.998.89l-.592 5.225c-.01.088-.006.174.006.257l-1.332 1.353c-.478.486-.483 1.266-.01 1.758l2.268 2.366c.415.433 1.078.513 1.585.193l3.746-2.375 3.193-3.02 1.238-1.24c.373-.37.373-.973 0-1.345zm-2.666-4.056l-3.497 3.448m4.713-1.973l-3.097 3.118m3.366-.717l-2.844 2.864m2.476-8.802c.37-.37.372-.974 0-1.345-.37-.37-.974-.37-1.345 0l-.933.934c.368-.37.367-.97-.004-1.34-.37-.372-.973-.372-1.345 0l-3.04 2.984M4.658 7.51v-.475c0-.554-.45-1.004-1.005-1.004-.51 0-.94.384-1 .892l-.59 5.223c-.01.09-.008.174.006.257L.736 13.756c-.478.486-.483 1.265-.01 1.758M12.68 2.904l.758-1.857M9.957 2.38L9.938.375M7.242 2.953l-.797-1.84" id="applause" fill="none" fill-rule="evenodd" stroke="#00BCD6" stroke-linecap="round" stroke-linejoin="round" stroke-width=".75"/><g id="bed_box" fill="none" fill-rule="evenodd" stroke="#212121"><path stroke-linecap="round" stroke-linejoin="round" d="M5 14h12v-2H5z"/><path stroke-linecap="square" d="M5.5 14.5v1m11-1v1"/><path stroke-linecap="round" stroke-linejoin="round" d="M7.425 9H7V6.84c0-.464.4-.84.895-.84h6.21c.495 0 .895.376.895.84V9h-.49M14.64 9H6.852L5 12h12l-1.852-3h-.508"/><path stroke-linecap="round" stroke-linejoin="round" d="M1 21h20V1H1z"/></g><g id="delete" fill-rule="evenodd"><path d="M12.141875,15.3419077 L3.221875,15.3419077 C2.978125,15.3419077 2.774375,15.1597538 2.749375,14.9197538 L1.656875,3.8896 C1.630625,3.61513846 1.849375,3.3776 2.129375,3.3776 L13.234375,3.3776 C13.515625,3.3776 13.733125,3.61513846 13.706875,3.8896 L12.614375,14.9197538 C12.590625,15.1597538 12.385625,15.3419077 12.141875,15.3419077"/><path stroke="currentColor" stroke-linecap="round" stroke-width=".884" d="M1.05425 1.74572308L14.30925 1.74572308M7.682625 1.69883077L7.682625.114830769"/><path stroke="#212121" stroke-linecap="round" stroke-width=".884" d="M4.920125 5.55224615L4.920125 13.1670154M7.682625 5.55224615L7.682625 13.1670154M10.443875 5.55224615L10.443875 13.1670154"/></g><g id="rotate_right" fill="none" fill-rule="evenodd"><path stroke="#FFF" stroke-linecap="round" stroke-width=".884" d="M11.13468,8.42356667 C11.13468,11.2690667 8.75988,13.5779 5.83188,13.5779 C2.90508,13.5779 0.53028,11.2690667 0.53028,8.42356667 C0.53028,5.5769 2.90508,3.26806667 5.83188,3.26806667"/><path fill="#FFF" d="M6.44832,6.48783333 L9.47592,3.51983333 C9.60312,3.39733333 9.60192,3.19783333 9.47472,3.07533333 L6.42312,0.134166667 C6.21912,-0.063 5.87112,0.0781666667 5.87232,0.358166667 L5.89392,6.2685 C5.89512,6.5485 6.24432,6.68733333 6.44832,6.48783333"/></g><g id="move" fill="none" fill-rule="evenodd"><polygon points="0 .001 3.064 .001 3.064 3.063 0 3.063"/><path fill="#FFF" d="M3.0636,1.53226667 C3.0636,2.3776 2.37693333,3.06293333 1.53293333,3.06293333 C0.686266667,3.06293333 -0.0004,2.3776 -0.0004,1.53226667 C-0.0004,0.6856 0.686266667,0.000266666667 1.53293333,0.000266666667 C2.37693333,0.000266666667 3.0636,0.6856 3.0636,1.53226667"/><polygon points="6.127 .001 9.191 .001 9.191 3.063 6.127 3.063"/><path fill="#FFF" d="M9.1912 1.53226667C9.1912 2.3776 8.50453333 3.06293333 7.6592 3.06293333 6.81253333 3.06293333 6.1272 2.3776 6.1272 1.53226667 6.1272.6856 6.81253333.000266666667 7.6592.000266666667 8.50453333.000266666667 9.1912.6856 9.1912 1.53226667M15.3176 1.53226667C15.3176 2.3776 14.6322667 3.06293333 13.7869333 3.06293333 12.9402667 3.06293333 12.2536 2.3776 12.2536 1.53226667 12.2536.6856 12.9402667.000266666667 13.7869333.000266666667 14.6322667.000266666667 15.3176.6856 15.3176 1.53226667M3.0636 7.65853333C3.0636 8.5052 2.37693333 9.19053333 1.53293333 9.19053333.686266667 9.19053333-.0004 8.5052-.0004 7.65853333-.0004 6.8132.686266667 6.12786667 1.53293333 6.12786667 2.37693333 6.12786667 3.0636 6.8132 3.0636 7.65853333M9.1912 7.65853333C9.1912 8.5052 8.50453333 9.19053333 7.6592 9.19053333 6.81253333 9.19053333 6.1272 8.5052 6.1272 7.65853333 6.1272 6.8132 6.81253333 6.12786667 7.6592 6.12786667 8.50453333 6.12786667 9.1912 6.8132 9.1912 7.65853333M15.3176 7.65853333C15.3176 8.5052 14.6322667 9.19053333 13.7869333 9.19053333 12.9402667 9.19053333 12.2536 8.5052 12.2536 7.65853333 12.2536 6.8132 12.9402667 6.12786667 13.7869333 6.12786667 14.6322667 6.12786667 15.3176 6.8132 15.3176 7.65853333M3.0636 13.7861333C3.0636 14.6328 2.37693333 15.3168 1.53293333 15.3168.686266667 15.3168-.0004 14.6328-.0004 13.7861333-.0004 12.9394667.686266667 12.2554667 1.53293333 12.2554667 2.37693333 12.2554667 3.0636 12.9394667 3.0636 13.7861333M9.1912 13.7861333C9.1912 14.6328 8.50453333 15.3168 7.6592 15.3168 6.81253333 15.3168 6.1272 14.6328 6.1272 13.7861333 6.1272 12.9394667 6.81253333 12.2554667 7.6592 12.2554667 8.50453333 12.2554667 9.1912 12.9394667 9.1912 13.7861333M15.3176 13.7861333C15.3176 14.6328 14.6322667 15.3168 13.7869333 15.3168 12.9402667 15.3168 12.2536 14.6328 12.2536 13.7861333 12.2536 12.9394667 12.9402667 12.2554667 13.7869333 12.2554667 14.6322667 12.2554667 15.3176 12.9394667 15.3176 13.7861333"/></g></defs></svg>
